<svg xmlns="http://www.w3.org/2000/svg" xmlns:xlink="http://www.w3.org/1999/xlink" xmlns:lucid="lucid" width="653.67" height="340"><g transform="translate(-506.3333333333335 -380)" lucid:page-tab-id="0_0"><path d="M914.34 587.5H1140V700H914.34z" stroke="#7f7f7f" stroke-width="2"/><use xlink:href="#a" transform="matrix(1,0,0,1,919.3411644535241,592.5) translate(26.592592592592595 37.76388888888889)"/><use xlink:href="#b" transform="matrix(1,0,0,1,919.3411644535241,592.5) translate(59.691358024691354 75.09722222222223)"/><path d="M526.33 587.5H752V700H526.32z" stroke="#7f7f7f" stroke-width="2"/><use xlink:href="#c" transform="matrix(1,0,0,1,531.3333333333335,592.5) translate(70.88271604938271 57.07638888888889)"/><path d="M526.33 400H752v112.5H526.32z" stroke="#7f7f7f" stroke-width="2"/><use xlink:href="#d" transform="matrix(1,0,0,1,531.3333333333335,405) translate(88.16666666666666 37.76388888888889)"/><use xlink:href="#e" transform="matrix(1,0,0,1,531.3333333333335,405) translate(54.59259259259259 75.09722222222223)"/><path d="M914.34 400H1140v112.5H914.34z" stroke="#7f7f7f" stroke-width="2"/><use xlink:href="#f" transform="matrix(1,0,0,1,919.3411644535241,405) translate(58.82716049382716 37.76388888888889)"/><use xlink:href="#g" transform="matrix(1,0,0,1,919.3411644535241,405) translate(73.5185185185185 75.09722222222223)"/><path d="M935.15 487.43l-6.98 29.47-7.2 29.48-22-20.7-22.2-20.93 13.53-3.6c-13.12-20.02-35.55-33.3-60.5-33.3-15.88 0-30.06 4.73-42.12 13.5v-.45l6.56-29.7-29 9.23-7.18 2.47c19.25-17.55 43.8-27.9 71.3-27.9 40.4 0 76.17 23.18 93.3 56.93l12.5-4.5z" stroke="#000" stroke-opacity="0" fill="#7f7f7f"/><path d="M935.36 539.18c0 57.6-47.18 105.07-105.36 105.07h-3.8L821.95 660l-17.77-18.67-2.98-3.38-20.73-22.05 29.4-6.97 1.27-.45 28.35-7.2-2.96 9.67c36.8-3.38 66-34.2 66-72v-2.92l22 20.7 7-29.48 2.54-9c.84 7.2 1.26 13.5 1.26 20.93z" stroke="#000" stroke-opacity="0" fill="#7f7f7f"/><path d="M799.74 606l-29.62 7.2 20.74 21.83 2.53 2.47c-40.42-14.62-69.62-53.55-69.62-98.77 0-19.58 5.5-38.25 14.6-53.55l-9.94-9.23 21.16-6.52 7.6-2.48 29.2-9-6.33 27.68-.43 1.35-6.77 29.47-8.67-8.77c-4.24 9.45-7.2 20.02-7.2 30.82 0 29.93 18.4 55.58 44.65 66.38l-1.9 1.12z" stroke="#000" stroke-opacity="0" fill="#7f7f7f"/><defs><path fill="#c7e8ac" d="M266 0h-40l-56-210L115 0H75L2-248h35L96-30l15-64 43-154h32l59 218 59-218h35" id="h"/><path fill="#c7e8ac" d="M141-36C126-15 110 5 73 4 37 3 15-17 15-53c-1-64 63-63 125-63 3-35-9-54-41-54-24 1-41 7-42 31l-33-3c5-37 33-52 76-52 45 0 72 20 72 64v82c-1 20 7 32 28 27v20c-31 9-61-2-59-35zM48-53c0 20 12 33 32 33 41-3 63-29 60-74-43 2-92-5-92 41" id="i"/><path fill="#c7e8ac" d="M59-47c-2 24 18 29 38 22v24C64 9 27 4 27-40v-127H5v-23h24l9-43h21v43h35v23H59v120" id="j"/><path fill="#c7e8ac" d="M96-169c-40 0-48 33-48 73s9 75 48 75c24 0 41-14 43-38l32 2c-6 37-31 61-74 61-59 0-76-41-82-99-10-93 101-131 147-64 4 7 5 14 7 22l-32 3c-4-21-16-35-41-35" id="k"/><path fill="#c7e8ac" d="M106-169C34-169 62-67 57 0H25v-261h32l-1 103c12-21 28-36 61-36 89 0 53 116 60 194h-32v-121c2-32-8-49-39-48" id="l"/><path fill="#c7e8ac" d="M100-194c62-1 85 37 85 99 1 63-27 99-86 99S16-35 15-95c0-66 28-99 85-99zM99-20c44 1 53-31 53-75 0-43-8-75-51-75s-53 32-53 75 10 74 51 75" id="m"/><path fill="#c7e8ac" d="M206 0h-36l-40-164L89 0H53L-1-190h32L70-26l43-164h34l41 164 42-164h31" id="n"/><path fill="#c7e8ac" d="M100-194c63 0 86 42 84 106H49c0 40 14 67 53 68 26 1 43-12 49-29l28 8c-11 28-37 45-77 45C44 4 14-33 15-96c1-61 26-98 85-98zm52 81c6-60-76-77-97-28-3 7-6 17-6 28h103" id="o"/><path fill="#c7e8ac" d="M114-163C36-179 61-72 57 0H25l-1-190h30c1 12-1 29 2 39 6-27 23-49 58-41v29" id="p"/><g id="a"><use transform="matrix(0.08641975308641976,0,0,0.08641975308641976,0,0)" xlink:href="#h"/><use transform="matrix(0.08641975308641976,0,0,0.08641975308641976,28.172839506172842,0)" xlink:href="#i"/><use transform="matrix(0.08641975308641976,0,0,0.08641975308641976,45.4567901234568,0)" xlink:href="#j"/><use transform="matrix(0.08641975308641976,0,0,0.08641975308641976,54.09876543209877,0)" xlink:href="#k"/><use transform="matrix(0.08641975308641976,0,0,0.08641975308641976,69.65432098765433,0)" xlink:href="#l"/><use transform="matrix(0.08641975308641976,0,0,0.08641975308641976,86.93827160493828,0)" xlink:href="#j"/><use transform="matrix(0.08641975308641976,0,0,0.08641975308641976,95.58024691358025,0)" xlink:href="#m"/><use transform="matrix(0.08641975308641976,0,0,0.08641975308641976,112.8641975308642,0)" xlink:href="#n"/><use transform="matrix(0.08641975308641976,0,0,0.08641975308641976,135.2469135802469,0)" xlink:href="#o"/><use transform="matrix(0.08641975308641976,0,0,0.08641975308641976,152.53086419753086,0)" xlink:href="#p"/></g><path fill="#c7e8ac" d="M30-248c118-7 216 8 213 122C240-48 200 0 122 0H30v-248zM63-27c89 8 146-16 146-99s-60-101-146-95v194" id="q"/><path fill="#c7e8ac" d="M115-194c55 1 70 41 70 98S169 2 115 4C84 4 66-9 55-30l1 105H24l-1-265h31l2 30c10-21 28-34 59-34zm-8 174c40 0 45-34 45-75s-6-73-45-74c-42 0-51 32-51 76 0 43 10 73 51 73" id="r"/><path fill="#c7e8ac" d="M24 0v-261h32V0H24" id="s"/><path fill="#c7e8ac" d="M179-190L93 31C79 59 56 82 12 73V49c39 6 53-20 64-50L1-190h34L92-34l54-156h33" id="t"/><g id="b"><use transform="matrix(0.08641975308641976,0,0,0.08641975308641976,0,0)" xlink:href="#q"/><use transform="matrix(0.08641975308641976,0,0,0.08641975308641976,22.38271604938272,0)" xlink:href="#o"/><use transform="matrix(0.08641975308641976,0,0,0.08641975308641976,39.66666666666667,0)" xlink:href="#r"/><use transform="matrix(0.08641975308641976,0,0,0.08641975308641976,56.95061728395062,0)" xlink:href="#s"/><use transform="matrix(0.08641975308641976,0,0,0.08641975308641976,63.777777777777786,0)" xlink:href="#m"/><use transform="matrix(0.08641975308641976,0,0,0.08641975308641976,81.06172839506173,0)" xlink:href="#t"/></g><path fill="#c7e8ac" d="M212-179c-10-28-35-45-73-45-59 0-87 40-87 99 0 60 29 101 89 101 43 0 62-24 78-52l27 14C228-24 195 4 139 4 59 4 22-46 18-125c-6-104 99-153 187-111 19 9 31 26 39 46" id="u"/><path fill="#c7e8ac" d="M85-194c31 0 48 13 60 33l-1-100h32l1 261h-30c-2-10 0-23-3-31C134-8 116 4 85 4 32 4 16-35 15-94c0-66 23-100 70-100zm9 24c-40 0-46 34-46 75 0 40 6 74 45 74 42 0 51-32 51-76 0-42-9-74-50-73" id="v"/><g id="c"><use transform="matrix(0.08641975308641976,0,0,0.08641975308641976,0,0)" xlink:href="#u"/><use transform="matrix(0.08641975308641976,0,0,0.08641975308641976,22.38271604938272,0)" xlink:href="#m"/><use transform="matrix(0.08641975308641976,0,0,0.08641975308641976,39.66666666666667,0)" xlink:href="#v"/><use transform="matrix(0.08641975308641976,0,0,0.08641975308641976,56.95061728395062,0)" xlink:href="#o"/></g><path fill="#c7e8ac" d="M143 4C61 4 22-44 18-125c-5-107 100-154 193-111 17 8 29 25 37 43l-32 9c-13-25-37-40-76-40-61 0-88 39-88 99 0 61 29 100 91 101 35 0 62-11 79-27v-45h-74v-28h105v86C228-13 192 4 143 4" id="w"/><path fill="#c7e8ac" d="M24-231v-30h32v30H24zM24 0v-190h32V0H24" id="x"/><g id="d"><use transform="matrix(0.08641975308641976,0,0,0.08641975308641976,0,0)" xlink:href="#w"/><use transform="matrix(0.08641975308641976,0,0,0.08641975308641976,24.19753086419753,0)" xlink:href="#x"/><use transform="matrix(0.08641975308641976,0,0,0.08641975308641976,31.024691358024693,0)" xlink:href="#j"/></g><path fill="#c7e8ac" d="M210-169c-67 3-38 105-44 169h-31v-121c0-29-5-50-35-48C34-165 62-65 56 0H25l-1-190h30c1 10-1 24 2 32 10-44 99-50 107 0 11-21 27-35 58-36 85-2 47 119 55 194h-31v-121c0-29-5-49-35-48" id="y"/><g id="e"><use transform="matrix(0.08641975308641976,0,0,0.08641975308641976,0,0)" xlink:href="#u"/><use transform="matrix(0.08641975308641976,0,0,0.08641975308641976,22.38271604938272,0)" xlink:href="#m"/><use transform="matrix(0.08641975308641976,0,0,0.08641975308641976,39.66666666666667,0)" xlink:href="#y"/><use transform="matrix(0.08641975308641976,0,0,0.08641975308641976,65.50617283950618,0)" xlink:href="#y"/><use transform="matrix(0.08641975308641976,0,0,0.08641975308641976,91.34567901234568,0)" xlink:href="#x"/><use transform="matrix(0.08641975308641976,0,0,0.08641975308641976,98.17283950617285,0)" xlink:href="#j"/></g><path fill="#c7e8ac" d="M143 0L79-87 56-68V0H24v-261h32v163l83-92h37l-77 82L181 0h-38" id="z"/><g id="f"><use transform="matrix(0.08641975308641976,0,0,0.08641975308641976,0,0)" xlink:href="#q"/><use transform="matrix(0.08641975308641976,0,0,0.08641975308641976,22.38271604938272,0)" xlink:href="#m"/><use transform="matrix(0.08641975308641976,0,0,0.08641975308641976,39.66666666666667,0)" xlink:href="#k"/><use transform="matrix(0.08641975308641976,0,0,0.08641975308641976,55.22222222222223,0)" xlink:href="#z"/><use transform="matrix(0.08641975308641976,0,0,0.08641975308641976,70.77777777777779,0)" xlink:href="#o"/><use transform="matrix(0.08641975308641976,0,0,0.08641975308641976,88.06172839506173,0)" xlink:href="#p"/></g><path fill="#c7e8ac" d="M160-131c35 5 61 23 61 61C221 17 115-2 30 0v-248c76 3 177-17 177 60 0 33-19 50-47 57zm-97-11c50-1 110 9 110-42 0-47-63-36-110-37v79zm0 115c55-2 124 14 124-45 0-56-70-42-124-44v89" id="A"/><path fill="#c7e8ac" d="M84 4C-5 8 30-112 23-190h32v120c0 31 7 50 39 49 72-2 45-101 50-169h31l1 190h-30c-1-10 1-25-2-33-11 22-28 36-60 37" id="B"/><g id="g"><use transform="matrix(0.08641975308641976,0,0,0.08641975308641976,0,0)" xlink:href="#A"/><use transform="matrix(0.08641975308641976,0,0,0.08641975308641976,20.740740740740744,0)" xlink:href="#B"/><use transform="matrix(0.08641975308641976,0,0,0.08641975308641976,38.0246913580247,0)" xlink:href="#x"/><use transform="matrix(0.08641975308641976,0,0,0.08641975308641976,44.85185185185187,0)" xlink:href="#s"/><use transform="matrix(0.08641975308641976,0,0,0.08641975308641976,51.67901234567903,0)" xlink:href="#v"/></g></defs></g></svg>